<svg width="41" height="41" viewBox="0 0 41 41" fill="none" xmlns="http://www.w3.org/2000/svg">
<path d="M38.9688 20.1249C38.9688 10.1974 30.9062 2.15622 20.9688 2.15622C11.0313 2.15622 2.96875 10.1974 2.96875 20.1249C2.96875 30.0525 11.0313 38.0937 20.9688 38.0937C30.9062 38.0937 38.9688 30.0525 38.9688 20.1249Z" fill="#1CD7AD" stroke="white" stroke-width="4"/>
<path fill-rule="evenodd" clip-rule="evenodd" d="M19.9293 17.7782L19.9669 17.7799C20.1043 17.7799 20.2369 17.7145 20.322 17.6038C20.4163 17.4806 20.4413 17.3194 20.3889 17.1741C20.3845 17.1614 19.9558 15.9158 20.5125 14.8784C21.1034 13.8904 21.2959 13.0947 21.0844 12.514C20.8946 11.9922 20.4664 11.8538 20.4193 11.8401C20.1848 11.7709 19.9305 11.9093 19.8613 12.1445C19.7911 12.3834 19.9267 12.6359 20.1448 12.7C20.1474 12.7009 20.2079 12.7312 20.2425 12.8261C20.2934 12.9655 20.3476 13.3975 19.7586 14.3876L19.737 14.424C19.692 14.4988 19.6435 14.5763 19.591 14.6572C18.9095 15.7107 18.7054 16.5405 18.9843 17.1221C19.2086 17.5917 19.6817 17.7552 19.9293 17.7782ZM26.2693 25.4288C25.6673 25.3861 24.9784 25.3524 24.2348 25.3269C24.9133 24.7369 25.4861 23.9719 25.9071 23.0818C26.1127 23.2892 26.3682 23.4405 26.6578 23.5111C26.7845 23.5424 26.9127 23.5576 27.0399 23.5576C27.331 23.5576 27.6174 23.4772 27.8723 23.3206C28.2387 23.0953 28.4964 22.74 28.5975 22.3196C28.6988 21.899 28.6316 21.4643 28.4083 21.0951C28.0342 20.4757 27.3123 20.2068 26.649 20.3733C26.6778 20.0847 26.6974 19.7926 26.6974 19.4941C26.6974 19.1827 26.4474 18.9305 26.1385 18.9305H15.7927C15.484 18.9305 15.2337 19.1827 15.2337 19.4941C15.2337 21.9074 16.2086 24.0398 17.6931 25.3275C16.9509 25.3529 16.263 25.3864 15.662 25.4288C13.5696 25.5764 12.9612 25.7169 12.9612 26.3628C12.9612 27.0084 13.5696 27.1491 15.662 27.2968C17.0806 27.3969 18.9642 27.4521 20.9656 27.4521C22.9669 27.4521 24.8505 27.3969 26.2693 27.2968C28.3617 27.1491 28.9699 27.0084 28.9699 26.3628C28.9699 25.7169 28.3617 25.5764 26.2693 25.4288ZM26.5373 21.1367C26.5394 21.1353 26.5416 21.1347 26.5439 21.1341C26.5461 21.1335 26.5483 21.133 26.5503 21.1317C26.9905 20.8613 27.5672 21.0026 27.8356 21.4468C27.9656 21.6617 28.0046 21.915 27.9456 22.1601C27.8868 22.405 27.737 22.6117 27.5233 22.7426C27.31 22.8743 27.0585 22.9133 26.8162 22.8541C26.5734 22.7947 26.3679 22.6435 26.2382 22.428C26.2313 22.4165 26.2221 22.4079 26.2128 22.3992C26.2079 22.3945 26.2029 22.3899 26.1983 22.3847C26.3415 21.9863 26.4543 21.5687 26.5373 21.1367ZM16.372 20.0576H25.5594C25.3398 23.0961 23.3633 25.4819 20.9656 25.4819C18.568 25.4819 16.5917 23.0961 16.372 20.0576ZM22.3462 17.8629L22.3149 17.862C22.0818 17.8393 21.7653 17.6987 21.6111 17.3756C21.4131 16.9636 21.5379 16.4213 21.993 15.7179C22.0205 15.675 22.0466 15.6335 22.0709 15.5933L22.0967 15.5502C22.4476 14.9613 22.3862 14.7474 22.3781 14.7252C22.3795 14.7259 22.3982 14.7341 22.424 14.7415C22.3167 14.7092 22.2279 14.6363 22.1746 14.5369C22.1208 14.4368 22.1091 14.322 22.1414 14.2134C22.2046 13.9962 22.4467 13.8626 22.6645 13.9265C22.7262 13.9452 23.0321 14.055 23.1693 14.4311C23.3174 14.8381 23.1983 15.3548 22.8058 16.0104C22.5007 16.5797 22.7397 17.2852 22.7427 17.294L22.7427 17.294C22.792 17.4312 22.7683 17.5826 22.6791 17.6984C22.5993 17.8018 22.4749 17.8629 22.3462 17.8629Z" fill="white"/>
</svg>
