<svg width="41" height="41" viewBox="0 0 41 41" fill="none" xmlns="http://www.w3.org/2000/svg">
<path d="M38.9375 20.1249C38.9375 10.1974 30.8749 2.15615 20.9375 2.15615C11.0001 2.15615 2.93749 10.1974 2.93749 20.1249C2.93749 30.0525 11.0001 38.0937 20.9375 38.0937C30.8749 38.0937 38.9375 30.0525 38.9375 20.1249Z" fill="#FF4E50" stroke="white" stroke-width="4"/>
<path fill-rule="evenodd" clip-rule="evenodd" d="M27.6166 15.1486H21.9363L24.177 12.4662C24.2129 12.4726 24.2437 12.4862 24.2809 12.4862C24.6497 12.4862 24.948 12.1888 24.948 11.8205C24.948 11.4544 24.6497 11.1549 24.2809 11.1549C23.9139 11.1549 23.6137 11.4544 23.6137 11.8205C23.6137 11.901 23.6339 11.9752 23.6596 12.0461L21.0678 15.1486H20.8236L18.233 12.0461C18.2581 11.9752 18.2777 11.901 18.2777 11.8205C18.2777 11.4544 17.9793 11.1549 17.6105 11.1549C17.2429 11.1549 16.9433 11.4544 16.9433 11.8205C16.9433 12.1888 17.2429 12.4862 17.6105 12.4862C17.6476 12.4862 17.6797 12.4726 17.7143 12.4662L19.9556 15.1486H14.2753C13.5389 15.1486 12.9416 15.7451 12.9416 16.4791V25.7977C12.9416 26.5327 13.5389 27.1285 14.2753 27.1285H27.6166C28.3531 27.1285 28.9504 26.5327 28.9504 25.7977V16.4791C28.9504 15.7451 28.3531 15.1486 27.6166 15.1486ZM24.948 24.4664C24.948 25.2013 24.3513 25.7977 23.6137 25.7977H15.6097C14.8732 25.7977 14.2753 25.2013 14.2753 24.4664V17.8108C14.2753 17.0753 14.8732 16.4791 15.6097 16.4791H23.6137C24.3513 16.4791 24.948 17.0753 24.948 17.8108V24.4664ZM26.9136 18.5178C26.3875 18.5178 25.9607 18.0915 25.9607 17.567C25.9607 17.042 26.3875 16.6168 26.9136 16.6168C27.4392 16.6168 27.8659 17.042 27.8659 17.567C27.8659 18.0915 27.4392 18.5178 26.9136 18.5178Z" fill="white"/>
</svg>
