<svg width="41" height="41" viewBox="0 0 41 41" fill="none" xmlns="http://www.w3.org/2000/svg">
<path d="M38.9688 20.1406C38.9688 10.2063 30.908 2.15622 20.9688 2.15622C11.0295 2.15622 2.96875 10.2063 2.96875 20.1406C2.96875 30.075 11.0295 38.1249 20.9688 38.1249C30.908 38.1249 38.9688 30.075 38.9688 20.1406Z" fill="#4E73DB" stroke="white" stroke-width="4"/>
<path fill-rule="evenodd" clip-rule="evenodd" d="M27.2787 13.6989C27.3341 13.6701 27.402 13.677 27.4523 13.7153C27.5013 13.7543 27.5234 13.8181 27.5086 13.8792L24.5981 25.7609C24.5875 25.804 24.5594 25.8399 24.521 25.8623C24.4966 25.8757 24.4687 25.8834 24.4409 25.8834C24.4252 25.8834 24.4095 25.8808 24.3942 25.8765L18.5722 24.1203C18.5203 24.1047 18.48 24.0642 18.4643 24.0129C18.4492 23.9611 18.4611 23.9052 18.496 23.8645L24.2913 17.0727L16.7463 23.4585C16.7043 23.497 16.6441 23.5094 16.5897 23.4921L11.6291 21.9301C11.567 21.91 11.5228 21.8548 11.5171 21.7905C11.512 21.7254 11.5459 21.6643 11.6048 21.6346L27.2787 13.6989ZM18.667 25.3653L20.2758 25.8555C20.3238 25.8702 20.3622 25.9063 20.3798 25.9531C20.3975 25.9993 20.392 26.0518 20.3648 26.0937L18.756 28.6106C18.7252 28.6577 18.6737 28.6851 18.6196 28.6851C18.6042 28.6851 18.5892 28.6828 18.5747 28.6789C18.5053 28.6587 18.4579 28.5964 18.4579 28.5252V25.5183C18.4579 25.4674 18.4819 25.4195 18.5235 25.3893C18.5648 25.359 18.6183 25.3495 18.667 25.3653Z" fill="white"/>
</svg>
