<svg width="41" height="40" viewBox="0 0 41 40" fill="none" xmlns="http://www.w3.org/2000/svg">
<path d="M38.9687 20.0156C38.9687 10.093 30.8955 2.06247 20.9531 2.06247C11.0108 2.06247 2.93749 10.093 2.93749 20.0156C2.93749 29.9382 11.0108 37.9687 20.9531 37.9687C30.8955 37.9687 38.9687 29.9382 38.9687 20.0156Z" fill="#FFA507" stroke="white" stroke-width="4"/>
<path fill-rule="evenodd" clip-rule="evenodd" d="M24.1549 17.7464L27.2196 26.0133C27.3998 26.4499 27.3466 26.9622 27.0713 27.3685C26.796 27.775 26.3372 28.0167 25.8437 28.0167H17.1219C16.6284 28.0167 16.1696 27.775 15.8941 27.3693C15.6189 26.9622 15.5656 26.4494 15.7519 25.9971L18.8108 17.7464V15.3135C18.2313 15.1133 17.8162 14.5681 17.8162 13.9287V13.5319C17.8162 12.7231 18.4798 12.0656 19.2955 12.0656H23.6699C24.4856 12.0656 25.1492 12.7231 25.1492 13.5319V13.9287C25.1492 14.5685 24.733 15.1144 24.1549 15.3139V17.7464ZM19.6124 23.6394C19.3349 23.6394 19.1094 23.8618 19.1094 24.1391C19.1094 24.4158 19.3349 24.6387 19.6124 24.6387C19.8921 24.6387 20.1177 24.4158 20.1177 24.1391C20.1177 23.8618 19.8921 23.6394 19.6124 23.6394ZM23.2303 25.4374C23.2303 24.9625 22.8408 24.5749 22.359 24.5749C21.8767 24.5749 21.488 24.9625 21.488 25.4374C21.488 25.9143 21.8767 26.3021 22.359 26.3021C22.8408 26.3021 23.2303 25.9143 23.2303 25.4374ZM22.2461 22.0602C21.8988 22.0602 21.6173 22.3404 21.6173 22.6823C21.6173 23.0254 21.8988 23.3046 22.2461 23.3046C22.5915 23.3046 22.8728 23.0254 22.8728 22.6823C22.8728 22.3404 22.5915 22.0602 22.2461 22.0602ZM19.7893 14.91V17.9187L18.6478 20.9975H18.6929C18.6929 20.9975 23.3623 20.9214 24.0013 20.2633C24.008 20.2566 24.0141 20.2514 24.0203 20.2461C24.025 20.2421 24.0296 20.2381 24.0346 20.2335L23.1763 17.9187V14.425H23.6655C23.946 14.425 24.1707 14.2023 24.1707 13.9287V13.5319C24.1707 13.2579 23.946 13.0355 23.6699 13.0355H19.2955C19.0194 13.0355 18.7946 13.2579 18.7946 13.5319V13.9287C18.7946 14.2023 19.0194 14.425 19.2955 14.425H19.7848L19.7893 14.91ZM21.8229 19.1106C21.8229 19.4838 21.5174 19.787 21.1425 19.787C20.7654 19.787 20.4603 19.4838 20.4603 19.1106C20.4603 18.7391 20.7654 18.4353 21.1425 18.4353C21.5174 18.4353 21.8229 18.7391 21.8229 19.1106Z" fill="white"/>
</svg>
